<svg width="16" height="16" viewBox="0 0 16 16" fill="none" xmlns="http://www.w3.org/2000/svg">
<g clip-path="url(#clip0)">
<path d="M0.144041 2.64687L1.49717 1.29375C1.68467 1.10625 1.93779 1 2.20342 1H6.99717V0.5C6.99717 0.225 7.22217 0 7.49717 0H8.49717C8.77217 0 8.99717 0.225 8.99717 0.5V1H14.2472C14.6597 1 14.9972 1.3375 14.9972 1.75V4.25C14.9972 4.6625 14.6597 5 14.2472 5H2.20342C1.93779 5 1.68467 4.89375 1.49717 4.70625L0.144041 3.35313C-0.0528336 3.15938 -0.0528336 2.84062 0.144041 2.64687ZM8.99717 15.5C8.99717 15.775 8.77217 16 8.49717 16H7.49717C7.22217 16 6.99717 15.775 6.99717 15.5V12H8.99717V15.5ZM1.74717 7H6.99717V6H8.99717V7H13.7909C14.0565 7 14.3097 7.10625 14.4972 7.29375L15.8503 8.64688C16.044 8.84063 16.044 9.15937 15.8503 9.35312L14.4972 10.7063C14.3097 10.8938 14.0565 11 13.7909 11H1.74717C1.33467 11 0.997166 10.6625 0.997166 10.25V7.75C0.997166 7.3375 1.33467 7 1.74717 7Z" fill="#03012C"/>
</g>
<defs>
<clipPath id="clip0">
<rect width="16" height="16" transform="matrix(-1 0 0 1 16 0)" fill="white"/>
</clipPath>
</defs>
</svg>
