<svg width="116" height="116" viewBox="0 0 116 116" fill="none" xmlns="http://www.w3.org/2000/svg">
<g clip-path="url(#clip0)">
<path d="M101.681 0.996465C102.135 0.0902146 103.222 -0.272285 104.128 0.18084C104.491 0.36209 104.763 0.633965 104.944 0.996465L107.935 7.34021L114.46 8.33709C115.456 8.51834 116.091 9.42459 116 10.4215C115.91 10.784 115.728 11.1465 115.547 11.4183L110.744 16.3121L111.831 23.2902C112.013 24.2871 111.288 25.1933 110.291 25.3746C109.928 25.4652 109.475 25.3746 109.113 25.1933L103.313 21.9308L97.5127 25.1933C96.8783 25.5558 96.1533 25.4652 95.6096 25.1027C95.0658 24.7402 94.7033 24.0152 94.8846 23.2902L96.0627 16.3121L91.2596 11.4183C90.5346 10.6933 90.5346 9.51521 91.2596 8.88084C91.5315 8.60896 91.894 8.42771 92.2565 8.33709L98.7815 7.34021L101.681 0.996465Z" fill="white"/>
<path d="M25.6469 9.51563C25.8281 10.15 25.6469 10.875 25.1937 11.3281L20.3906 16.3125L21.4781 23.2906C21.5687 24.0156 21.2969 24.7406 20.7531 25.1031C20.2094 25.4656 19.4844 25.5563 18.85 25.1938L13.05 21.9313L7.15935 25.1031C6.52497 25.4656 5.79998 25.375 5.25623 25.0125C4.71248 24.65 4.34997 23.925 4.53122 23.2L5.70935 16.3125L0.906223 11.4188C0.181223 10.6938 0.181223 9.51563 0.906223 8.88125C1.1781 8.60938 1.5406 8.42813 1.9031 8.42813L8.4281 7.43125L11.3281 1.17813C11.7812 0.271878 12.8687 -0.0906219 13.775 0.362503C14.1375 0.543753 14.4093 0.815628 14.5906 1.17813L17.4906 7.43125L24.0156 8.42813C24.8312 8.42813 25.4656 8.88125 25.6469 9.51563Z" fill="white"/>
<path d="M57.547 0.181248C58.0001 -1.51992e-06 58.4532 -1.51992e-06 58.9063 0.181248L65.7032 4.07812C66.0657 4.35 66.3376 4.80312 66.4282 5.25625V13.05C66.4282 13.5031 66.1563 13.9562 65.7032 14.2281L58.9063 18.125C58.4532 18.3062 58.0001 18.3062 57.547 18.125L50.7501 14.2281C50.3876 13.9562 50.1157 13.5031 50.0251 13.05V5.16562C50.0251 4.7125 50.297 4.25937 50.7501 3.9875L57.547 0.181248ZM53.7407 11.6L58.272 14.1375L62.8032 11.5094V6.525L58.272 3.9875L53.7407 6.525V11.6Z" fill="white"/>
<path d="M92.2565 98.9625L98.7815 97.9656L101.681 91.7125C102.135 90.8063 103.222 90.4438 104.128 90.8969C104.491 91.0781 104.763 91.35 104.944 91.7125L107.935 97.9656L114.46 98.9625C115.456 99.1438 116.091 100.05 116 101.047C115.91 101.409 115.728 101.772 115.547 102.044L110.744 106.938L111.831 113.916C112.013 114.913 111.288 115.819 110.291 116C109.928 116.091 109.475 116 109.113 115.819L103.313 112.556L97.5127 115.819C96.6065 116.272 95.519 116 95.0658 115.094C94.8846 114.731 94.794 114.369 94.8846 113.916L96.0627 106.938L91.2596 102.044C90.5346 101.319 90.5346 100.141 91.2596 99.5063C91.6221 99.2344 91.894 99.0531 92.2565 98.9625Z" fill="white"/>
<path d="M50.7501 101.862L57.547 97.9656C58.0001 97.7844 58.4532 97.7844 58.9063 97.9656L65.7032 101.862C66.0657 102.134 66.3376 102.587 66.4282 103.041V110.744C66.4282 111.197 66.1563 111.65 65.7032 111.922L58.997 115.819C58.5438 116 58.0907 116 57.6376 115.819L50.8407 111.922C50.4782 111.65 50.2064 111.197 50.1157 110.744V103.041C50.1157 102.587 50.3876 102.134 50.7501 101.862ZM53.6501 109.475L58.1813 112.012L62.7126 109.475V104.4L58.1813 101.862L53.6501 104.4V109.475Z" fill="white"/>
<path d="M106.938 67.0625C101.953 67.0625 97.875 62.9844 97.875 58C97.875 53.0156 101.953 48.9375 106.938 48.9375C111.922 48.9375 116 53.0156 116 58C116 62.9844 111.922 67.0625 106.938 67.0625ZM106.938 52.5625C103.947 52.5625 101.5 55.0094 101.5 58C101.5 60.9906 103.947 63.4375 106.938 63.4375C109.928 63.4375 112.375 60.9906 112.375 58C112.375 55.0094 109.928 52.5625 106.938 52.5625Z" fill="white"/>
<path d="M9.51562 48.9375C14.5 48.9375 18.5781 53.0156 18.5781 58C18.5781 62.9844 14.5 67.0625 9.51562 67.0625C4.53125 67.0625 0.453125 62.9844 0.453125 58C0.453125 53.0156 4.44063 48.9375 9.51562 48.9375ZM9.51562 63.4375C12.5062 63.4375 14.9531 60.9906 14.9531 58C14.9531 55.0094 12.5062 52.5625 9.51562 52.5625C6.525 52.5625 4.07812 55.0094 4.07812 58C4.07812 60.9906 6.43437 63.4375 9.51562 63.4375Z" fill="white"/>
<path d="M22.5657 85.7312C23.2001 85.0062 24.2876 85.0063 25.1032 85.55L26.8251 87L31.447 82.1969C18.0345 67.3344 19.2126 44.4062 34.0751 30.9938C40.6907 25.1031 49.3001 21.75 58.1813 21.75H58.272C78.3001 21.75 94.522 37.9719 94.522 58C94.522 78.0281 78.3001 94.25 58.272 94.25H58.1813C52.8345 94.25 47.5782 93.0719 42.7751 90.8062L37.6095 96.5156L39.9657 98.6C40.6907 99.2344 40.7813 100.412 40.147 101.137L27.4595 115.366C27.097 115.728 26.6438 116 26.1001 116C25.647 116 25.1938 115.819 24.922 115.547C24.197 114.912 24.1063 113.734 24.7407 113.009L36.2501 100.141L24.0157 89.5375L3.08134 112.194C2.44698 112.919 1.26884 112.919 0.543846 112.284C-0.181152 111.65 -0.27179 110.472 0.453217 109.747L22.5657 85.7312ZM45.4032 77.9375L58.272 70.7781L71.0501 77.9375L68.6032 62.8938L79.0251 52.2L64.7063 50.025L58.1813 36.25L51.747 49.9344L37.4282 52.1094L47.8501 62.8938L45.4032 77.9375ZM34.8907 94.1594L39.5126 88.9937C37.5188 87.8156 35.7063 86.3656 33.9845 84.825L29.5438 89.4469L34.8907 94.1594Z" fill="white"/>
</g>
<defs>
<clipPath id="clip0">
<rect width="116" height="116" transform="matrix(-1 0 0 1 116 0)" fill="white"/>
</clipPath>
</defs>
</svg>
